<?xml version="1.0" encoding="utf-8"?>
<!-- Generator: Adobe Illustrator 15.0.0, SVG Export Plug-In . SVG Version: 6.00 Build 0)  -->
<!DOCTYPE svg PUBLIC "-//W3C//DTD SVG 1.1//EN" "http://www.w3.org/Graphics/SVG/1.1/DTD/svg11.dtd">
<svg version="1.1" id="svg-eip" class="svg-logo" xmlns="http://www.w3.org/2000/svg" xmlns:xlink="http://www.w3.org/1999/xlink" x="0px" y="0px"
	 width="600px" height="600px" viewBox="0 0 600 600" enable-background="new 0 0 600 600" xml:space="preserve">
<circle fill="#F53053" cx="300" cy="300" r="300"/>
<g>
	<path fill="#FFFFFF" d="M211.546,62.332l20.502-6.07l-3.916-13.228l-22.9,6.78l-3.06-10.334l35.466-10.5l16.496,55.721
		l-34.309,10.157l-3.06-10.334l21.743-6.437l-3.426-11.574l-20.503,6.07L211.546,62.332z"/>
	<path fill="#FFFFFF" d="M186.121,45.721l28.292,50.764l-13.406,7.472L180.094,91.23c-5.993-3.668-12.457-8.358-17.982-12.781
		l-0.15,0.083c4.414,6.326,8.459,13.054,12.741,20.736l8.228,14.762l-10.544,5.877l-28.292-50.764l12.051-6.717l21.76,13.538
		c6.035,3.744,13.076,8.407,18.803,13.014l0.301-0.168c-4.155-6.568-8.293-13.64-12.911-21.925l-8.521-15.289L186.121,45.721z"/>
	<path fill="#FFFFFF" d="M151.429,123.74l11.697-10.461l7.357,8.227l-33.292,29.774l-7.357-8.227l11.826-10.576l-31.384-35.091
		l9.769-8.737L151.429,123.74z"/>
	<path fill="#FFFFFF" d="M134.862,153.037c-1.963,3.804-5.245,9.098-9.457,14.776c-5.136,6.924-9.77,11.001-14.867,12.373
		c-4.321,1.195-8.775,0.253-13.068-2.931c-5.886-4.366-6.838-11.62-5.313-16.715l-0.208-0.154
		c-3.729,2.279-8.112,1.819-13.278-0.188c-6.411-2.5-13.531-5.635-16-6.071l8.012-10.802c1.899,0.335,6.511,1.931,13.234,4.878
		c6.861,3.05,9.875,2.172,13.179-2.139l2.312-3.116l-18.35-13.611l7.756-10.456L134.862,153.037z M107.025,148.598l-3.082,4.154
		c-3.904,5.263-3.583,10.331,0.502,13.361c4.224,3.133,8.597,1.868,12.192-2.979c1.9-2.562,2.841-4.119,3.198-5.035L107.025,148.598
		z"/>
	<path fill="#FFFFFF" d="M63.333,208.915l9.033-19.382l-12.505-5.828l-10.089,21.649l-9.77-4.553l15.625-33.529l52.677,24.549
		l-15.115,32.435l-9.77-4.553l9.579-20.555l-10.941-5.099l-9.033,19.382L63.333,208.915z"/>
	<path fill="#FFFFFF" d="M90.375,229.716c-0.271,4.102-1.092,9.757-2.957,17.556c-1.885,7.883-4.737,13.141-8.659,16.193
		c-3.733,3.008-8.991,4.233-14.526,2.91c-5.535-1.323-9.894-4.228-12.175-8.408c-2.982-5.323-3.368-12.242-1.563-19.789
		c0.401-1.677,0.846-3.167,1.378-4.281l-20.295-4.852l3.028-12.663L90.375,229.716z M61.686,236.244
		c-0.512,1.03-0.897,2.268-1.358,4.197c-1.624,6.793,0.812,11.808,6.515,13.171c5.2,1.243,9.165-1.621,10.708-8.079
		c0.602-2.516,0.855-4.317,0.824-5.299L61.686,236.244z"/>
	<path fill="#FFFFFF" d="M80.402,274.51c0.584,4.241,0.947,10.46,0.77,17.528c-0.215,8.62-1.659,14.621-5.037,18.677
		c-2.847,3.465-7.031,5.258-12.375,5.124c-7.327-0.183-12.281-5.567-13.967-10.612l-0.258-0.006
		c-1.739,4.01-5.587,6.156-10.968,7.488c-6.683,1.645-14.311,3.18-16.58,4.244l0.336-13.447c1.745-0.818,6.437-2.168,13.632-3.627
		c7.368-1.455,9.326-3.907,9.548-9.335l0.097-3.879l-22.842-0.57l0.325-13.016L80.402,274.51z M55.081,286.902l-0.129,5.172
		c-0.164,6.551,3.015,10.512,8.101,10.639c5.258,0.131,8.107-3.42,8.257-9.455c0.08-3.189-0.048-5.003-0.283-5.958L55.081,286.902z"
		/>
	<path fill="#FFFFFF" d="M83.345,335.392l-57.624,7.549l-1.702-12.995l57.624-7.549L83.345,335.392z"/>
	<path fill="#FFFFFF" d="M41.483,356.334c-0.791,3.814-1.012,9.617,0.531,15.005c1.662,5.802,4.944,8.181,8.591,7.136
		c3.481-0.997,4.71-4.22,5.108-11.598c0.656-10.233,4.038-17.839,12.161-20.166c9.532-2.73,19.046,3.244,22.797,16.34
		c1.828,6.383,1.891,11.298,1.266,15.064l-10.919,0.078c0.46-2.464,0.872-6.977-0.672-12.364c-1.567-5.47-4.896-7.387-7.714-6.579
		c-3.564,1.021-4.26,4.539-4.906,12.616c-0.822,10.908-4.655,16.938-12.529,19.194c-9.366,2.683-19.365-2.166-23.757-17.5
		c-1.828-6.382-1.892-13.18-1.054-16.828L41.483,356.334z"/>
	<path fill="#FFFFFF" d="M82.515,430.355l-9.737-19.038l-12.283,6.281l10.875,21.265l-9.596,4.907l-16.843-32.933l51.741-26.462
		l16.293,31.858l-9.596,4.907l-10.326-20.189l-10.748,5.496l9.737,19.038L82.515,430.355z"/>
	<path fill="#FFFFFF" d="M146.02,456.398l-41.991,40.182l-9.062-9.471l41.991-40.181L146.02,456.398z"/>
	<path fill="#FFFFFF" d="M116.427,509.487l34.422-46.825l12.366,9.091l-2.888,24.31c-0.847,6.976-2.428,14.803-4.156,21.666
		l0.139,0.103c3.92-6.644,8.359-13.118,13.568-20.205l10.01-13.616l9.727,7.149l-34.422,46.825l-11.115-8.171l3.274-25.418
		c0.898-7.045,2.215-15.387,4.027-22.51l-0.278-0.204c-4.249,6.508-8.962,13.21-14.58,20.853l-10.367,14.103L116.427,509.487z"/>
	<path fill="#FFFFFF" d="M173.262,548.107l21.885-53.839l14.219,5.78l3.163,24.276c0.89,6.97,1.277,14.946,1.286,22.023l0.16,0.065
		c2.171-7.401,4.886-14.769,8.198-22.916l6.364-15.656l11.184,4.546l-21.886,53.839l-12.78-5.195l-3.061-25.444
		c-0.857-7.051-1.627-15.461-1.618-22.811l-0.32-0.13c-2.523,7.352-5.448,15.005-9.02,23.792l-6.592,16.216L173.262,548.107z"/>
	<path fill="#FFFFFF" d="M294.677,549.354c-2.527,18.973-15.408,28.826-32.33,26.572c-17.008-2.266-25.374-16.514-23.177-33.009
		c2.299-17.264,15.129-28.688,32.051-26.435C288.912,518.838,296.805,533.371,294.677,549.354z M252.964,544.493
		c-1.514,11.367,2.726,20.021,11.444,21.183c8.803,1.172,14.96-6.532,16.452-17.728c1.389-10.427-2.299-19.964-11.272-21.159
		C260.699,525.605,254.456,533.298,252.964,544.493z"/>
	<path fill="#FFFFFF" d="M321.326,576.805l-24.591-55.854l14.321-1.503l9.598,23.701c2.701,6.739,5.187,13.067,7.314,20.127
		l0.257-0.026c0.729-7.1,1.81-14.149,3.089-20.959l4.782-25.472l13.892-1.458l-13.398,59.842L321.326,576.805z"/>
	<path fill="#FFFFFF" d="M373.52,552.315l0.73,15.464l-12.859,4.23l-1.371-60.73l16.382-5.39l35.363,49.548l-13.515,4.446
		l-8.922-12.769L373.52,552.315z M384.454,538.37l-7.293-10.581c-2.062-2.953-4.392-6.726-6.288-9.732l-0.164,0.054
		c0.259,3.546,0.814,7.993,0.964,11.484l0.577,12.79L384.454,538.37z"/>
	<path fill="#FFFFFF" d="M426.849,548.045l-30.874-49.231l13.002-8.153l21.54,11.629c6.174,3.354,12.87,7.703,18.616,11.834
		l0.146-0.092c-4.734-6.088-9.122-12.598-13.795-20.049l-8.978-14.316l10.226-6.413l30.874,49.231l-11.687,7.33l-22.429-12.396
		c-6.22-3.427-13.491-7.721-19.448-12.025l-0.292,0.184c4.488,6.345,8.985,13.192,14.024,21.228l9.299,14.827L426.849,548.045z"/>
	<path fill="#FFFFFF" d="M457.469,468.352l-11.147,11.044l-7.768-7.84l31.727-31.434l7.768,7.84l-11.27,11.165l33.134,33.442
		l-9.31,9.224L457.469,468.352z"/>
	<path fill="#FFFFFF" d="M519.004,427.787l-12.025,17.68l11.406,7.759l13.432-19.747l8.912,6.062l-20.804,30.583l-48.049-32.684
		L492,407.854l8.911,6.062l-12.753,18.749l9.98,6.789l12.025-17.68L519.004,427.787z"/>
	<path fill="#FFFFFF" d="M508.892,374.173c0.346-4.879,1.278-11.125,2.772-17.506c2.537-10.83,6.205-17.41,11.493-21.839
		c5.742-4.854,13.576-6.916,23.566-4.575c10.83,2.537,17.378,8.233,20.736,14.688c3.557,7.121,3.764,16.823,1.167,27.904
		c-1.554,6.633-3.095,11.32-4.242,14.328L508.892,374.173z M557.972,372.21c0.508-1.033,0.94-2.88,1.295-4.391
		c2.817-11.65-1.773-20.785-15.29-23.951c-11.753-2.754-19.579,2.675-22.175,13.757c-0.649,2.771-0.85,4.761-0.854,5.911
		L557.972,372.21z"/>
	<path fill="#FFFFFF" d="M553.198,284.963l-0.348,21.381l13.794,0.225l0.389-23.881l10.776,0.175l-0.603,36.985l-58.106-0.946
		l0.582-35.778l10.776,0.175l-0.369,22.674l12.07,0.196l0.348-21.38L553.198,284.963z"/>
	<path fill="#FFFFFF" d="M562.756,269.275c1.164-3.717,1.957-9.47,0.953-14.984c-1.081-5.938-4.112-8.628-7.844-7.949
		c-3.563,0.648-5.104,3.733-6.229,11.037c-1.664,10.118-5.78,17.352-14.093,18.866c-9.755,1.776-18.633-5.109-21.072-18.511
		c-1.189-6.532-0.766-11.429,0.228-15.115l10.874,1c-0.701,2.406-1.557,6.856-0.553,12.37c1.02,5.598,4.143,7.834,7.027,7.309
		c3.647-0.664,4.688-4.096,6.128-12.07c1.895-10.773,6.304-16.396,14.362-17.863c9.585-1.745,19.057,4.067,21.913,19.76
		c1.188,6.531,0.581,13.302-0.613,16.85L562.756,269.275z"/>
	<path fill="#FFFFFF" d="M500.104,206.021c-2.637-3.154-5.95-7.81-9.988-14.737c-4.083-7.002-5.651-12.775-4.924-17.691
		c0.622-4.754,3.578-9.272,8.494-12.138c4.917-2.866,10.075-3.777,14.611-2.33c5.834,1.789,10.892,6.526,14.8,13.231
		c0.868,1.49,1.576,2.874,1.96,4.047l18.027-10.509l6.558,11.249L500.104,206.021z M516.342,181.484
		c-0.341-1.099-0.918-2.26-1.916-3.973c-3.518-6.034-8.743-7.978-13.81-5.025c-4.618,2.692-5.507,7.502-2.163,13.238
		c1.303,2.235,2.363,3.712,3.064,4.401L516.342,181.484z"/>
	<path fill="#FFFFFF" d="M445.7,154.874l1.695-13.618l6.353,6.691l-0.908,6.807l0.119,0.125l6.845-0.555l6.294,6.628l-13.629,1.049
		L445.7,154.874z M460.488,109.086c13.882-13.181,30.095-12.761,41.851-0.38c11.814,12.444,9.379,28.788-2.689,40.247
		c-12.632,11.993-29.792,12.829-41.548,0.448C445.812,136.458,448.795,120.189,460.488,109.086z M489.902,139.063
		c8.316-7.896,10.451-17.295,4.396-23.673c-6.115-6.441-15.746-4.312-23.938,3.466c-7.628,7.243-10.747,16.982-4.514,23.548
		C472.021,148.908,481.711,146.841,489.902,139.063z"/>
	<path fill="#FFFFFF" d="M435.807,126.923l-10.871-7.32l26.294-39.049l-19.167-12.906l6.164-9.154l30.037,20.226L435.807,126.923z"
		/>
	<path fill="#FFFFFF" d="M383.694,60.617l19.655,8.424l5.435-12.681l-21.953-9.409l4.245-9.907l34.001,14.571l-22.894,53.417
		l-32.891-14.096l4.246-9.907l20.844,8.933l4.755-11.095l-19.655-8.424L383.694,60.617z"/>
	<path fill="#FFFFFF" d="M372.325,45.479c-2.993-2.492-8.01-5.418-13.489-6.591c-5.901-1.264-9.545,0.513-10.339,4.223
		c-0.758,3.541,1.507,6.142,7.83,9.964c8.72,5.394,13.839,11.957,12.07,20.219c-2.076,9.695-11.824,15.278-25.145,12.426
		c-6.491-1.39-10.857-3.647-13.887-5.971l5.069-9.671c1.957,1.565,5.745,4.052,11.225,5.225c5.564,1.191,8.821-0.844,9.436-3.711
		c0.775-3.625-2-5.895-8.823-10.265c-9.238-5.857-12.756-12.077-11.041-20.086c2.04-9.526,11.022-16.067,26.619-12.728
		c6.491,1.39,12.52,4.532,15.344,6.988L372.325,45.479z"/>
</g>
<circle fill="#FFFFFF" cx="300" cy="300" r="195"/>
<g>
	<path fill="#F53053" d="M240.535,307.748H172.19v49.5h76.417v25.25H139.094v-168.5h105.477v25.25H172.19v43.5h68.345V307.748z"/>
	<path fill="#F53053" d="M310.766,213.998v168.5h-33.097v-168.5H310.766z"/>
	<path fill="#F53053" d="M348.704,216.248c12.108-2,28.521-3.5,50.586-3.5c24.216,0,41.706,4.75,53.276,13.75
		c10.763,8.25,17.759,21.5,17.759,37.25c0,16-5.382,29-15.337,38c-13.454,12.25-33.903,18.25-57.313,18.25
		c-6.188,0-11.569-0.25-16.144-1.25v63.75h-32.827V216.248z M381.531,294.498c4.305,1.25,9.417,1.5,16.144,1.5
		c24.755,0,39.823-11.5,39.823-31c0-18.75-13.992-28.5-36.863-28.5c-9.148,0-15.606,0.75-19.104,1.5V294.498z"/>
</g>
<rect x="278" fill="#FFFFFF" width="30" height="110"/>
</svg>
