<?xml version="1.0" encoding="utf-8"?>
<!-- Generator: Adobe Illustrator 15.0.0, SVG Export Plug-In . SVG Version: 6.00 Build 0)  -->
<!DOCTYPE svg PUBLIC "-//W3C//DTD SVG 1.1//EN" "http://www.w3.org/Graphics/SVG/1.1/DTD/svg11.dtd">
<svg version="1.1" id="svg-jei" class="svg-logo" xmlns="http://www.w3.org/2000/svg" xmlns:xlink="http://www.w3.org/1999/xlink" x="0px" y="0px"
	 width="600px" height="600px" viewBox="0 0 600 600" enable-background="new 0 0 600 600" xml:space="preserve">
<circle fill="#2078EE" cx="300" cy="300" r="300"/>
<g>
	<path fill="#FFFFFF" d="M211.681,101.605l-12.937,5.822l-16.316-36.258c-7.354-16.342-2.089-25.568,10.422-31.198
		c3.064-1.379,7.209-2.63,10.146-2.928l3.264,11.12c-2.056,0.208-4.545,0.817-7.099,1.966c-5.447,2.451-7.741,6.452-3.758,15.303
		L211.681,101.605z"/>
	<path fill="#FFFFFF" d="M140.347,102.324l19.016-13.199l-8.516-12.268l-21.239,14.743l-6.653-9.584l32.894-22.833l35.872,51.679
		l-31.82,22.087l-6.653-9.584l20.166-13.998l-7.451-10.734l-19.016,13.199L140.347,102.324z"/>
	<path fill="#FFFFFF" d="M145.667,146.894l-26.939-24.063c-8.144-7.275-15.049-7.811-19.837-2.451
		c-4.975,5.569-3.813,12.114,4.541,19.576l26.939,24.063l-9.452,10.581l-26.313-23.504c-14.479-12.933-14.842-26.398-3.898-38.649
		c10.57-11.834,23.339-12.818,38.236,0.488l26.173,23.379L145.667,146.894z"/>
	<path fill="#FFFFFF" d="M60.943,151.832l56.287,28.087l-7.417,14.865l-26.461,1.399c-7.596,0.382-16.236,0.138-23.875-0.44
		l-0.083,0.167c7.807,2.957,15.532,6.499,24.05,10.749l16.368,8.168l-5.834,11.691L37.69,198.431l6.668-13.361l27.713-1.191
		c7.68-0.34,16.82-0.473,24.751,0.147l0.167-0.334c-7.724-3.333-15.741-7.125-24.927-11.708l-16.953-8.459L60.943,151.832z"/>
	<path fill="#FFFFFF" d="M48.743,261.885l5.12-22.573L39.3,236.009l-5.719,25.212l-11.377-2.581l8.857-39.047l61.347,13.915
		l-8.568,37.772L72.462,268.7l5.43-23.938l-12.742-2.89l-5.12,22.573L48.743,261.885z"/>
	<path fill="#FFFFFF" d="M51.65,353.985l-3.209-22.925l-14.79,2.07l3.584,25.605l-11.555,1.617l-5.551-39.655l62.303-8.722
		l5.37,38.362l-11.555,1.617l-3.403-24.312l-12.941,1.812l3.209,22.925L51.65,353.985z"/>
	<path fill="#FFFFFF" d="M30.116,379.293l58.447-23.264l6.144,15.436L78.12,392.13c-4.776,5.919-10.714,12.2-16.235,17.512
		l0.069,0.174c7.407-3.853,15.195-7.254,24.04-10.774l16.996-6.765l4.832,12.141L49.375,427.68l-5.522-13.874l17.576-21.461
		c4.863-5.954,10.854-12.859,16.6-18.36l-0.138-0.348c-7.632,3.54-15.801,6.993-25.339,10.789l-17.603,7.007L30.116,379.293z"/>
	<path fill="#FFFFFF" d="M109.259,427.056l-9.87-13.824l9.723-6.941l28.091,39.346l-9.723,6.941l-9.978-13.976l-41.473,29.609
		l-8.243-11.546L109.259,427.056z"/>
	<path fill="#FFFFFF" d="M138.658,448.057c3.905,2.495,9.286,6.562,14.987,11.668c6.954,6.228,10.887,11.629,11.858,17.261
		c0.858,4.778-0.601,9.485-4.461,13.797c-5.293,5.91-13.209,6.214-18.549,4.063l-0.187,0.209c2.085,4.248,1.153,8.926-1.526,14.296
		c-3.334,6.662-7.424,14.026-8.139,16.644l-10.848-9.714c0.55-2.014,2.731-6.827,6.578-13.781c3.972-7.094,3.325-10.43-0.993-14.422
		l-3.129-2.803L107.747,503.7l-10.5-9.402L138.658,448.057z M131.099,477.625l4.172,3.736c5.285,4.732,10.78,4.893,14.454,0.79
		c3.799-4.242,2.871-9.082-1.997-13.441c-2.573-2.304-4.157-3.473-5.109-3.949L131.099,477.625z"/>
	<path fill="#FFFFFF" d="M192.345,530.222l-20.181-11.338l-7.314,13.021l22.541,12.663l-5.715,10.172l-34.91-19.612l30.812-54.847
		l33.771,18.972l-5.715,10.172l-21.401-12.022l-6.4,11.393l20.181,11.337L192.345,530.222z"/>
	<path fill="#FFFFFF" d="M216.71,502.562c4.415,0.556,10.474,1.803,18.782,4.316c8.398,2.54,13.897,5.959,16.945,10.391
		c3.012,4.227,4,9.986,2.217,15.883s-5.2,10.422-9.863,12.619c-5.943,2.884-13.443,2.857-21.484,0.425
		c-1.787-0.54-3.368-1.116-4.538-1.762l-6.54,21.62l-13.49-4.081L216.71,502.562z M221.931,533.98
		c1.08,0.619,2.393,1.114,4.448,1.735c7.236,2.189,12.812-0.123,14.649-6.198c1.675-5.539-1.167-10.007-8.045-12.087
		c-2.68-0.811-4.61-1.2-5.674-1.229L221.931,533.98z"/>
	<path fill="#FFFFFF" d="M264.132,516.068c4.612-0.448,11.354-0.571,18.992-0.074c9.314,0.605,15.743,2.427,19.983,6.257
		c3.625,3.229,5.383,7.833,5.008,13.607c-0.516,7.917-6.555,13.043-12.083,14.647l-0.018,0.279
		c4.262,2.055,6.417,6.311,7.625,12.188c1.489,7.299,2.819,15.616,3.873,18.117l-14.53-0.945c-0.81-1.923-2.066-7.056-3.333-14.901
		c-1.255-8.032-3.823-10.257-9.685-10.731l-4.191-0.272l-1.605,24.682l-14.064-0.915L264.132,516.068z M276.439,543.993l5.588,0.364
		c7.079,0.46,11.5-2.807,11.857-8.302c0.37-5.682-3.348-8.917-9.868-9.341c-3.446-0.224-5.414-0.165-6.457,0.048L276.439,543.993z"
		/>
	<path fill="#FFFFFF" d="M329.817,515.186l6.49,62.57l-14.111,1.463l-6.489-62.57L329.817,515.186z"/>
	<path fill="#FFFFFF" d="M351.565,561.008c4.115,0.916,10.393,1.248,16.249-0.337c6.306-1.707,8.932-5.222,7.859-9.186
		c-1.024-3.784-4.492-5.166-12.473-5.713c-11.064-0.873-19.243-4.653-21.633-13.482c-2.804-10.36,3.813-20.563,18.047-24.416
		c6.937-1.877,12.258-1.867,16.324-1.131l-0.088,11.82c-2.659-0.537-7.537-1.055-13.393,0.53c-5.946,1.609-8.073,5.183-7.244,8.246
		c1.049,3.873,4.846,4.683,13.578,5.51c11.793,1.063,18.26,5.307,20.576,13.865c2.755,10.18-2.651,20.926-19.318,25.437
		c-6.937,1.877-14.295,1.839-18.23,0.873L351.565,561.008z"/>
	<path fill="#FFFFFF" d="M432.24,517.006l-20.586,10.58l6.826,13.281l22.993-11.817l5.333,10.376l-35.61,18.303l-28.755-55.947
		l34.448-17.705l5.333,10.376l-21.831,11.22l5.973,11.621l20.586-10.58L432.24,517.006z"/>
	<path fill="#FFFFFF" d="M459.233,447.729l44.686,44.274l-9.984,10.077l-44.686-44.274L459.233,447.729z"/>
	<path fill="#FFFFFF" d="M517.919,477.736l-52.193-35.121l9.275-13.784l26.422,2.03c7.583,0.602,16.12,1.959,23.62,3.519
		l0.104-0.155c-7.361-3.94-14.564-8.45-22.463-13.765l-15.178-10.214l7.295-10.841l52.193,35.121l-8.337,12.39l-27.638-2.396
		c-7.66-0.654-16.742-1.703-24.527-3.342l-0.208,0.31c7.229,4.303,14.69,9.098,23.209,14.83l15.72,10.578L517.919,477.736z"/>
	<path fill="#FFFFFF" d="M557.323,413.605l-59.66-19.962l5.271-15.756l26.01-5.077c7.47-1.438,16.061-2.402,23.706-2.896
		l0.059-0.177c-8.145-1.84-16.288-4.269-25.316-7.29l-17.35-5.805l4.146-12.393l59.66,19.962l-4.739,14.163l-27.279,5.046
		c-7.558,1.408-16.591,2.814-24.531,3.308l-0.119,0.354c8.115,2.223,16.583,4.859,26.32,8.117l17.969,6.013L557.323,413.605z"/>
	<path fill="#FFFFFF" d="M549.072,282.038c20.694,1.009,32.487,14.012,31.587,32.469c-0.905,18.55-15.517,28.862-33.508,27.985
		c-18.829-0.919-32.314-13.724-31.414-32.181C516.679,291.016,531.642,281.188,549.072,282.038z M547.604,327.471
		c12.398,0.604,21.349-4.752,21.813-14.26c0.469-9.602-8.398-15.547-20.609-16.143c-11.372-0.555-21.326,4.286-21.804,14.073
		C526.53,320.836,535.393,326.875,547.604,327.471z"/>
	<path fill="#FFFFFF" d="M575.681,249.979l-57.339,32.801l-3.241-15.246l24.427-13.018c6.948-3.672,13.479-7.064,20.837-10.155
		l-0.059-0.274c-7.725,0.02-15.436-0.344-22.911-0.95l-27.962-2.261l-3.145-14.79l65.938,7.642L575.681,249.979z"/>
	<path fill="#FFFFFF" d="M521.596,175.578l9.836,20.953l13.518-6.346l-10.985-23.403l10.562-4.958l17.013,36.246L504.594,224.8
		l-16.458-35.063l10.561-4.957l10.43,22.22l11.829-5.552l-9.835-20.953L521.596,175.578z"/>
	<path fill="#FFFFFF" d="M534.722,145.086l-49.046,39.389l-10.402-12.953l9.792-24.623c2.829-7.061,6.662-14.807,10.381-21.505
		l-0.117-0.146c-5.95,5.856-12.396,11.393-19.819,17.354l-14.263,11.455l-8.182-10.188l49.046-39.389l9.352,11.643l-10.505,25.674
		c-2.901,7.118-6.603,15.478-10.481,22.423l0.233,0.291c6.257-5.624,13.054-11.321,21.059-17.75l14.771-11.863L534.722,145.086z"/>
	<path fill="#FFFFFF" d="M445.074,122.609l13.472,10.348l-7.277,9.475l-38.343-29.451l7.277-9.475l13.619,10.461l31.043-40.415
		l11.251,8.642L445.074,122.609z"/>
	<path fill="#FFFFFF" d="M391.995,63.067l20.896,9.956l6.424-13.481l-23.34-11.12l5.019-10.533l36.146,17.223l-27.059,56.791
		l-34.967-16.66l5.018-10.533l22.16,10.559l5.621-11.796l-20.896-9.956L391.995,63.067z"/>
</g>
<circle fill="#FFFFFF" cx="300" cy="300" r="195"/>
<g>
	<path fill="#2078EE" d="M197.617,213.998h33.096v109.25c0,46.5-24.216,62-60.003,62c-9.418,0-20.719-1.5-27.984-4l4.036-24.75
		c5.381,1.75,12.646,3,20.45,3c18.835,0,30.405-8,30.405-37.25V213.998z"/>
	<path fill="#2078EE" d="M368.48,307.748h-68.345v49.5h76.417v25.25H267.039v-168.5h105.477v25.25h-72.38v43.5h68.345V307.748z"/>
	<path fill="#2078EE" d="M438.71,213.998v168.5h-33.096v-168.5H438.71z"/>
</g>
<rect x="284" fill="#FFFFFF" width="30" height="110"/>
</svg>
